<?xml version="1.0" encoding="utf-8"?>
<!-- Generator: Adobe Illustrator 25.4.1, SVG Export Plug-In . SVG Version: 6.00 Build 0)  -->
<svg version="1.1" id="图层_1" xmlns="http://www.w3.org/2000/svg" xmlns:xlink="http://www.w3.org/1999/xlink" x="0px" y="0px"
	 viewBox="0 0 1139.7 350.3" enable-background="new 0 0 1139.7 350.3" xml:space="preserve">
<path fill="#1F3969" d="M579.5,189.3c-3.9,0-7.1,3.2-7.1,7.1v37.8c0,3.9,3.2,7.1,7.1,7.1h78.2c3.9,0,7.1-3.2,7.1-7.1v-37.8
	c0-3.9-3.2-7.1-7.1-7.1H579.5z M657.6,244.4h-78.2c-5.6,0-10.1-4.5-10.1-10.1v-37.8c0-5.6,4.5-10.1,10.1-10.1h78.2
	c5.6,0,10.1,4.5,10.1,10.1v37.8C667.8,239.9,663.2,244.4,657.6,244.4z"/>
<g>
	<g id="Layer_1">
		<path fill="#C9C9C9" d="M497.8,320.3h620.3c5,0,9,4,9,9l0,0c0,5-4,9-9,9H497.8c-5,0-9-4-9-9l0,0
			C488.8,324.3,492.9,320.3,497.8,320.3z"/>
		<path fill="#CECECE" d="M614.6,245.3c-9.6-0.1-17.3-7.9-17.2-17.5c0.1-9.5,7.7-17.1,17.2-17.2h98v34.7H614.6z"/>
		<path fill="#FFFFFF" d="M614.6,204.6h103.7l0,0v46.7l0,0H614.6c-12.9,0-23.3-10.5-23.3-23.3l0,0
			C591.2,215.1,601.7,204.6,614.6,204.6C614.6,204.6,614.6,204.6,614.6,204.6z"/>
		<path fill="#1F3969" d="M712.6,224.6H608.2c-1.1,0-2-0.9-2-2s0.9-2,2-2h104.4c1.1,0,2,0.9,2,2S713.7,224.6,712.6,224.6z"/>
		<path fill="#1F3969" d="M712.6,235.2H608.2c-1.1,0-2-0.9-2-2s0.9-2,2-2h104.4c1.1,0,2,0.9,2,2S713.7,235.2,712.6,235.2z"/>
		<path fill="#1F3969" d="M712.6,247.3h-98c-10.7-0.1-19.3-8.8-19.2-19.5c0.1-10.6,8.6-19.1,19.2-19.2h98c1.1,0,2,0.9,2,2v34.7
			C714.6,246.4,713.7,247.3,712.6,247.3z M614.6,212.6c-8.5,0.1-15.3,7-15.2,15.5c0.1,8.4,6.8,15.2,15.2,15.2h96v-30.7H614.6z"/>
		<path fill="#FF3E3E" d="M614.6,245.3c-9.6-0.1-17.3-7.9-17.2-17.5c0.1-9.5,7.7-17.1,17.2-17.2h99.7l4-6H614.6
			c-12.9,0-23.3,10.5-23.3,23.3l0,0c0,12.9,10.4,23.3,23.3,23.3c0,0,0,0,0,0h103.7l-4-6H614.6z"/>
		<path fill="#1F3969" d="M718.3,253.3H614.6c-14-0.1-25.3-11.5-25.2-25.5c0.1-13.9,11.3-25.1,25.2-25.2h103.7c1.1,0,2,0.9,2,2
			c0,0.4-0.1,0.8-0.3,1.1l-4,6c-0.4,0.6-1,0.9-1.7,0.9h-99.7c-8.5,0.1-15.3,7-15.2,15.5c0.1,8.4,6.8,15.2,15.2,15.2h99.7
			c0.7,0,1.3,0.3,1.7,0.9l4,6c0.6,0.9,0.4,2.2-0.6,2.8C719.1,253.2,718.7,253.3,718.3,253.3z M614.6,206.6
			c-11.8,0.1-21.3,9.7-21.2,21.5c0.1,11.7,9.5,21.1,21.2,21.2h100l-1.3-2h-98.6c-10.7-0.1-19.3-8.8-19.2-19.5
			c0.1-10.6,8.6-19.1,19.2-19.2h98.6l1.3-2H614.6z"/>
		<g opacity="0.28">
			<rect x="677.6" y="204.6" fill="#1F3969" width="18.4" height="46.7"/>
			<path fill="#1F3969" d="M696,253.3h-18.4c-1.1,0-2-0.9-2-2v-46.7c0-1.1,0.9-2,2-2H696c1.1,0,2,0.9,2,2v46.7
				C698,252.4,697.1,253.3,696,253.3C696,253.3,696,253.3,696,253.3z M679.6,249.3H694v-42.7h-14.4V249.3z"/>
		</g>
		<path fill="#50B56F" d="M517.7,251.3h189.9c3.7,0,6.8,3,6.8,6.8v25c0,3.7-3,6.8-6.8,6.8H517.7c-3.7,0-6.8-3-6.8-6.8v-25
			C511,254.3,514,251.3,517.7,251.3z"/>
		<path fill="#1F3969" d="M707.6,291.9H517.7c-4.8,0-8.8-3.9-8.8-8.8v-25c0-4.8,3.9-8.8,8.8-8.8h189.9c4.8,0,8.8,3.9,8.8,8.8v25
			C716.4,287.9,712.5,291.9,707.6,291.9z M517.7,253.3c-2.6,0-4.8,2.1-4.8,4.8v25c0,2.6,2.1,4.8,4.8,4.8h189.9
			c2.6,0,4.8-2.1,4.8-4.8v-25c0-2.6-2.1-4.8-4.8-4.8H517.7z"/>
		<g opacity="0.28">
			<path fill="#1F3969" d="M707.6,251.3h-30v15c0,9.4,7.6,17.1,17.1,17.1c0,0,0,0,0,0h19.7c0-0.1,0-0.2,0-0.3v-25
				C714.4,254.3,711.4,251.3,707.6,251.3L707.6,251.3z"/>
			<path fill="#1F3969" d="M714.4,285.4h-19.7c-10.5,0-19-8.5-19.1-19.1v-15c0-1.1,0.9-2,2-2h30c4.8,0,8.8,3.9,8.8,8.8v25
				c0,0.1,0,0.2,0,0.3C716.3,284.5,715.4,285.3,714.4,285.4z M679.6,253.3v13c0,8.3,6.7,15.1,15.1,15.1h17.7v-23.3
				c0-2.6-2.1-4.8-4.8-4.8L679.6,253.3z"/>
		</g>
		<path fill="#CECECE" d="M761.1,297.6H541.1c2.7,7.3,2.7,15.4,0,22.7h219.9C758.4,313,758.4,304.9,761.1,297.6z"/>
		<rect x="535.2" y="291.6" fill="#5F5AFF" width="231.9" height="6"/>
		<path fill="#1F3969" d="M767,299.6H535.2c-1.1,0-2-0.9-2-2v-6c0-1.1,0.9-2,2-2H767c1.1,0,2,0.9,2,2v6
			C769,298.7,768.1,299.6,767,299.6z M537.2,295.6H765v-2H537.2L537.2,295.6z"/>
		<rect x="535.2" y="320.3" fill="#F6F9FD" width="231.9" height="6"/>
		<rect x="535.2" y="320.3" fill="#5F5AFF" width="231.9" height="6"/>
		<path fill="#1F3969" d="M767,328.4H535.2c-1.1,0-2-0.9-2-2v-6c0-1.1,0.9-2,2-2H767c1.1,0,2,0.9,2,2v6
			C769,327.5,768.1,328.4,767,328.4C767,328.4,767,328.4,767,328.4z M537.2,324.4H765v-2H537.2L537.2,324.4z"/>
		<path fill="#BFCFE2" d="M882.3,305l-3-33.7h-49.4l-3,33.7c-0.7,7.8-5.4,15.3-12.8,21.3l0,0.1h81l0-0.1
			C887.7,320.3,883,312.8,882.3,305z"/>
		<g opacity="0.28">
			<polygon fill="#1F3969" points="829.9,271.4 828.1,291.6 881.1,291.6 879.3,271.4 			"/>
			<path fill="#1F3969" d="M881.1,293.6h-53c-1.1,0-2-0.9-2-2c0-0.1,0-0.1,0-0.2l1.8-20.2c0.1-1,1-1.8,2-1.8h49.4c1,0,1.9,0.8,2,1.8
				l1.8,20.2c0.1,1.1-0.7,2.1-1.8,2.2C881.2,293.6,881.2,293.6,881.1,293.6L881.1,293.6z M830.3,289.6h48.7l-1.5-16.2h-45.8
				L830.3,289.6z"/>
		</g>
		<path fill="#1F3969" d="M895.1,328.4h-81c-1.1,0-2-0.9-2-2c0-0.1,0-0.2,0-0.2c0.1-0.5,0.3-1,0.7-1.4c7.1-5.8,11.4-12.8,12-19.9
			l3-33.7c0.1-1,1-1.8,2-1.8h49.4c1,0,1.9,0.8,2,1.8l3,33.7l0,0c0.6,7.1,4.9,14.1,12,19.9c0.4,0.3,0.7,0.8,0.7,1.3
			c0.1,0.6-0.1,1.2-0.5,1.6C896.2,328.1,895.7,328.3,895.1,328.4z M819.2,324.4H890c-5.7-5.8-9.1-12.4-9.7-19.2l-2.9-31.8h-45.7
			l-2.9,31.8C828.3,311.9,824.9,318.6,819.2,324.4z"/>
		<path fill="#FFFFFF" d="M696.6,46.4h316c6.6,0,12,5.4,12,12v206c0,6.6-5.4,12-12,12h-316c-6.6,0-12-5.4-12-12v-206
			C684.6,51.7,690,46.4,696.6,46.4z"/>
		<path fill="#BFCFE2" d="M696.6,46.4h316c6.6,0,12,5.4,12,12v206c0,6.6-5.4,12-12,12h-316c-6.6,0-12-5.4-12-12v-206
			C684.6,51.7,690,46.4,696.6,46.4z"/>
		<path fill="#1F3969" d="M1012.6,278.4h-316c-7.7,0-14-6.3-14-14v-206c0-7.7,6.3-14,14-14h316c7.7,0,14,6.3,14,14v206
			C1026.6,272.1,1020.3,278.4,1012.6,278.4z M696.6,48.4c-5.5,0-10,4.5-10,10v206c0,5.5,4.5,10,10,10h316c5.5,0,10-4.5,10-10v-206
			c0-5.5-4.5-10-10-10H696.6z"/>
		<rect x="701.6" y="63.4" fill="#F6F9FD" width="306" height="174.6"/>
		<g opacity="0.28">
			<path fill="#1F3969" d="M712.6,46.4V185c0,4.4,3.6,8,8,8h189.1c4.4,0,8-3.6,8-8V46.4H712.6z"/>
			<path fill="#1F3969" d="M909.7,195H720.6c-5.5,0-10-4.5-10-10V46.4c0-1.1,0.9-2,2-2h205.1c1.1,0,2,0.9,2,2V185
				C919.7,190.5,915.2,194.9,909.7,195z M714.6,48.4V185c0,3.3,2.7,6,6,6h189.1c3.3,0,6-2.7,6-6V48.4H714.6z"/>
		</g>
		<path fill="#1F3969" d="M1007.6,240h-306c-1.1,0-2-0.9-2-2V63.4c0-1.1,0.9-2,2-2h306c1.1,0,2,0.9,2,2V238
			C1009.6,239.1,1008.7,240,1007.6,240z M703.6,236h302V65.4h-302V236z"/>
		<path fill="#1F3969" d="M868,259.1h-26.9c-1.1,0-2-0.9-2-2s0.9-2,2-2H868c1.1,0,2,0.9,2,2S869.1,259.1,868,259.1z"/>
		<path fill="#2D425E" d="M729.6,17.7h189.1c4.4,0,8,3.6,8,8V174c0,4.4-3.6,8-8,8H729.6c-4.4,0-8-3.6-8-8V25.7
			C721.6,21.2,725.2,17.7,729.6,17.7z"/>
		<path fill="#1F3969" d="M926.7,39.1H721.6c-1.1,0-2-0.9-2-2V25.7c0-5.5,4.5-10,10-10h189.1c5.5,0,10,4.5,10,10v11.5
			C928.7,38.2,927.8,39.1,926.7,39.1z M723.6,35.1h201.1v-9.5c0-3.3-2.7-6-6-6H729.6c-3.3,0-6,2.7-6,6L723.6,35.1z"/>
		<path fill="#D0DDF0" d="M729.6,17.7h189.1c4.4,0,8,3.6,8,8v15.3l0,0H721.6l0,0V25.7C721.6,21.2,725.2,17.7,729.6,17.7z"/>
		<path fill="#1F3969" d="M926.7,42.9H721.6c-1.1,0-2-0.9-2-2V25.7c0-5.5,4.5-10,10-10h189.1c5.5,0,10,4.5,10,10v15.3
			C928.7,42,927.8,42.9,926.7,42.9z M723.6,38.9h201.1V25.7c0-3.3-2.7-6-6-6H729.6c-3.3,0-6,2.7-6,6L723.6,38.9z"/>
		<path fill="#1F3969" d="M926.7,42.9H721.6c-1.1,0-2-0.9-2-2V25.7c0-5.5,4.5-10,10-10h189.1c5.5,0,10,4.5,10,10v15.3
			C928.7,42,927.8,42.9,926.7,42.9z M723.6,38.9h201.1V25.7c0-3.3-2.7-6-6-6H729.6c-3.3,0-6,2.7-6,6L723.6,38.9z"/>
		<path fill="#1F3969" d="M918.7,184H729.6c-5.5,0-10-4.5-10-10V25.7c0-5.5,4.5-10,10-10h189.1c5.5,0,10,4.5,10,10V174
			C928.7,179.5,924.2,183.9,918.7,184z M729.6,19.7c-3.3,0-6,2.7-6,6V174c0,3.3,2.7,6,6,6h189.1c3.3,0,6-2.7,6-6V25.7
			c0-3.3-2.7-6-6-6H729.6z"/>
		<g opacity="0.28">
			<path fill="#1F3969" d="M901.4,78.4h116c4.4,0,8,3.6,8,8v122.9c0,4.4-3.6,8-8,8h-116c-4.4,0-8-3.6-8-8V86.4
				C893.4,82,896.9,78.4,901.4,78.4z"/>
			<path fill="#1F3969" d="M1017.4,219.4h-116c-5.5,0-10-4.5-10-10V86.4c0-5.5,4.5-10,10-10h116c5.5,0,10,4.5,10,10v122.9
				C1027.4,214.9,1022.9,219.4,1017.4,219.4z M901.4,80.4c-3.3,0-6,2.7-6,6v122.9c0,3.3,2.7,6,6,6h116c3.3,0,6-2.7,6-6V86.4
				c0-3.3-2.7-6-6-6H901.4z"/>
		</g>
		<path fill="#2AA1FF" d="M909.4,71.4h116c4.4,0,8,3.6,8,8v122.9c0,4.4-3.6,8-8,8h-116c-4.4,0-8-3.6-8-8V79.4
			C901.4,75,904.9,71.4,909.4,71.4z"/>
		<path fill="#1F3969" d="M1025.4,212.4h-116c-5.5,0-10-4.5-10-10V79.4c0-5.5,4.5-10,10-10h116c5.5,0,10,4.5,10,10v122.9
			C1035.4,207.9,1030.9,212.4,1025.4,212.4z M909.4,73.4c-3.3,0-6,2.7-6,6v122.9c0,3.3,2.7,6,6,6h116c3.3,0,6-2.7,6-6V79.4
			c0-3.3-2.7-6-6-6H909.4z"/>
		
			<path opacity="0.34" fill="none" stroke="#FFFFFF" stroke-width="2" stroke-linecap="round" stroke-linejoin="round" enable-background="new    " d="
			M926.5,91.4h81.6c2.9,0,5.2,2.3,5.2,5.2v7.8c0,2.9-2.3,5.2-5.2,5.2h-81.6c-2.9,0-5.2-2.3-5.2-5.2v-7.8
			C921.4,93.7,923.7,91.4,926.5,91.4z"/>
		<g opacity="0.34">
			<path fill="none" stroke="#FFFFFF" stroke-width="2" stroke-linecap="round" stroke-linejoin="round" d="M926.6,120.7h45.6
				c2.9,0,5.2,2.3,5.2,5.2v7.8c0,2.9-2.3,5.2-5.2,5.2h-45.6c-2.9,0-5.2-2.3-5.2-5.2v-7.8C921.5,123,923.8,120.7,926.6,120.7z"/>
			<path fill="none" stroke="#FFFFFF" stroke-width="2" stroke-linecap="round" stroke-linejoin="round" d="M990.5,120.7h17.7
				c2.9,0,5.2,2.3,5.2,5.2v7.8c0,2.9-2.3,5.2-5.2,5.2h-17.7c-2.9,0-5.2-2.3-5.2-5.2v-7.8C985.4,123,987.7,120.7,990.5,120.7z"/>
		</g>
		
			<line fill="none" stroke="#FFFFFF" stroke-width="2" stroke-linecap="round" stroke-linejoin="round" x1="921.4" y1="169.2" x2="1013.3" y2="169.2"/>
		
			<line fill="none" stroke="#FFFFFF" stroke-width="2" stroke-linecap="round" stroke-linejoin="round" x1="921.4" y1="180" x2="1013.3" y2="180"/>
		
			<line fill="none" stroke="#FFFFFF" stroke-width="2" stroke-linecap="round" stroke-linejoin="round" x1="921.4" y1="190.8" x2="977.3" y2="190.8"/>
		<circle fill="#EF4444" cx="741.7" cy="29.3" r="4"/>
		<circle fill="#10B981" cx="755.6" cy="29.3" r="4"/>
		<circle fill="#1F3969" cx="769.5" cy="29.3" r="4"/>
		
			<line fill="none" stroke="#FFFFFF" stroke-width="4" stroke-linecap="round" stroke-linejoin="round" x1="839.4" y1="59.4" x2="852.4" y2="59.4"/>
		
			<line fill="none" stroke="#7BFFA0" stroke-width="4" stroke-linecap="round" stroke-linejoin="round" x1="773.5" y1="59.4" x2="829.8" y2="59.4"/>
		
			<line fill="none" stroke="#9169FF" stroke-width="4" stroke-linecap="round" stroke-linejoin="round" x1="745.7" y1="59.4" x2="765.5" y2="59.4"/>
		
			<line fill="none" stroke="#9169FF" stroke-width="4" stroke-linecap="round" stroke-linejoin="round" x1="771.5" y1="158" x2="814.5" y2="158"/>
		
			<line fill="none" stroke="#7BFFA0" stroke-width="4" stroke-linecap="round" stroke-linejoin="round" x1="745.7" y1="158" x2="759.6" y2="158"/>
		
			<line fill="none" stroke="#FFFFFF" stroke-width="4" stroke-linecap="round" stroke-linejoin="round" x1="829.8" y1="71.7" x2="837.8" y2="71.7"/>
		
			<line fill="none" stroke="#9169FF" stroke-width="4" stroke-linecap="round" stroke-linejoin="round" x1="793" y1="71.7" x2="820.2" y2="71.7"/>
		
			<line fill="none" stroke="#FFC47D" stroke-width="4" stroke-linecap="round" stroke-linejoin="round" x1="755.6" y1="71.7" x2="783.3" y2="71.7"/>
		
			<line fill="none" stroke="#FFFFFF" stroke-width="4" stroke-linecap="round" stroke-linejoin="round" x1="798.5" y1="84" x2="822.4" y2="84"/>
		
			<line fill="none" stroke="#FF5757" stroke-width="4" stroke-linecap="round" stroke-linejoin="round" x1="768.5" y1="84" x2="790.9" y2="84"/>
		
			<line fill="none" stroke="#FFFFFF" stroke-width="4" stroke-linecap="round" stroke-linejoin="round" x1="801.7" y1="96.4" x2="806.6" y2="96.4"/>
		
			<line fill="none" stroke="#9169FF" stroke-width="4" stroke-linecap="round" stroke-linejoin="round" x1="781.9" y1="96.4" x2="793" y2="96.4"/>
		
			<line fill="none" stroke="#7BFFA0" stroke-width="4" stroke-linecap="round" stroke-linejoin="round" x1="755.6" y1="96.4" x2="773.5" y2="96.4"/>
		
			<line fill="none" stroke="#FFC47D" stroke-width="4" stroke-linecap="round" stroke-linejoin="round" x1="794" y1="108.7" x2="825.9" y2="108.7"/>
		
			<line fill="none" stroke="#FF5757" stroke-width="4" stroke-linecap="round" stroke-linejoin="round" x1="755.6" y1="108.7" x2="784.2" y2="108.7"/>
		
			<line fill="none" stroke="#9169FF" stroke-width="4" stroke-linecap="round" stroke-linejoin="round" x1="830.9" y1="121" x2="848.2" y2="121"/>
		
			<line fill="none" stroke="#FF5757" stroke-width="4" stroke-linecap="round" stroke-linejoin="round" x1="794" y1="121" x2="821.7" y2="121"/>
		
			<line fill="none" stroke="#7BFFA0" stroke-width="4" stroke-linecap="round" stroke-linejoin="round" x1="768.5" y1="121" x2="784.2" y2="121"/>
		
			<line fill="none" stroke="#FFFFFF" stroke-width="4" stroke-linecap="round" stroke-linejoin="round" x1="806.6" y1="133.3" x2="821.7" y2="133.3"/>
		
			<line fill="none" stroke="#9169FF" stroke-width="4" stroke-linecap="round" stroke-linejoin="round" x1="768.5" y1="133.3" x2="796.2" y2="133.3"/>
		
			<line fill="none" stroke="#FFFFFF" stroke-width="4" stroke-linecap="round" stroke-linejoin="round" x1="845.9" y1="145.6" x2="863.2" y2="145.6"/>
		
			<line fill="none" stroke="#FFC47D" stroke-width="4" stroke-linecap="round" stroke-linejoin="round" x1="793" y1="145.6" x2="836.5" y2="145.6"/>
		
			<line fill="none" stroke="#FFFFFF" stroke-width="4" stroke-linecap="round" stroke-linejoin="round" x1="755.6" y1="145.6" x2="783.3" y2="145.6"/>
		<path fill="#1F3969" d="M759,306.5H543.6c-1.1,0-2-0.9-2-2s0.9-2,2-2H759c1.1,0,2,0.9,2,2S760.1,306.5,759,306.5z"/>
		<path fill="#1F3969" d="M759,314.6H543.6c-1.1,0-2-0.9-2-2s0.9-2,2-2H759c1.1,0,2,0.9,2,2S760.1,314.6,759,314.6z"/>
		<path fill="#1F3969" d="M761.1,322.3H541.1c-1.1,0-2-0.9-2-2c0-0.3,0-0.5,0.1-0.7c2.5-6.9,2.5-14.4,0-21.2c-0.4-1,0.1-2.2,1.1-2.6
			c0.2-0.1,0.5-0.1,0.7-0.1h219.9c1.1,0,2,0.9,2,2c0,0.3,0,0.5-0.1,0.7c-2.5,6.9-2.5,14.4,0,21.2c0.4,1-0.1,2.2-1.1,2.6
			C761.6,322.3,761.3,322.3,761.1,322.3z M543.9,318.3h214.4c-1.7-6.1-1.7-12.6,0-18.7H543.9C545.6,305.7,545.6,312.2,543.9,318.3
			L543.9,318.3z"/>
		
			<rect x="1051.4" y="216.5" transform="matrix(0.9932 -0.1166 0.1166 0.9932 -22.2668 124.8774)" fill="#FFA364" width="9.8" height="72.7"/>
		
			<rect x="1047.6" y="216.7" transform="matrix(0.9932 -0.1166 0.1166 0.9932 -18.5145 124.2129)" fill="#2AA1FF" width="9.8" height="7.4"/>
		<path fill="#1F3969" d="M1048.1,226.6c-1,0-1.9-0.8-2-1.8l-0.9-7.3c-0.1-1.1,0.7-2.1,1.8-2.2c0,0,0,0,0,0l9.7-1.1
			c1.1-0.1,2.1,0.7,2.2,1.8c0,0,0,0,0,0l0.9,7.3c0.1,1.1-0.7,2.1-1.8,2.2l-9.7,1.1C1048.3,226.6,1048.2,226.6,1048.1,226.6z
			 M1049.5,219l0.4,3.4l5.8-0.7l-0.4-3.4L1049.5,219z"/>
		<path fill="#1F3969" d="M1055.7,291.4c-1,0-1.9-0.8-2-1.8l-8.5-72.2c-0.1-1.1,0.7-2.1,1.8-2.2c0,0,0,0,0,0l9.7-1.1
			c1.1-0.1,2.1,0.7,2.2,1.8c0,0,0,0,0,0l8.5,72.2c0.1,1.1-0.7,2.1-1.8,2.2c0,0,0,0,0,0l-9.7,1.1
			C1055.9,291.4,1055.8,291.4,1055.7,291.4z M1049.5,219l8,68.2l5.8-0.7l-8-68.2L1049.5,219z"/>
		
			<rect x="1038.7" y="261.5" transform="matrix(0.1081 -0.9941 0.9941 0.1081 694.0006 1306.3447)" fill="#FF5252" width="72.7" height="9.8"/>
		<path fill="#1F3969" d="M1076,305c-0.1,0-0.1,0-0.2,0l-9.8-1.1c-1.1-0.1-1.9-1.1-1.8-2.2l7.8-72.2c0.1-1.1,1.1-1.9,2.2-1.8
			l9.8,1.1c1.1,0.1,1.9,1.1,1.8,2.2l-7.9,72.2C1077.9,304.3,1077,305,1076,305z M1068.4,300.2l5.8,0.6l7.4-68.2l-5.8-0.6
			L1068.4,300.2z"/>
		
			<rect x="1074.9" y="229.1" transform="matrix(0.1081 -0.9941 0.9941 0.1081 729.3955 1280.9177)" fill="#2D425E" width="7.4" height="9.8"/>
		<path fill="#1F3969" d="M1083,240.2c-0.1,0-0.1,0-0.2,0l-9.8-1.1c-1.1-0.1-1.9-1.1-1.8-2.2l0.8-7.3c0.1-1.1,1.1-1.9,2.2-1.8
			l9.8,1.1c1.1,0.1,1.9,1.1,1.8,2.2l-0.8,7.3C1084.9,239.4,1084.1,240.2,1083,240.2z M1075.5,235.3l5.8,0.6l0.4-3.4l-5.8-0.6
			L1075.5,235.3z"/>
		<polygon fill="#6567C3" points="1089.8,326.6 1050.5,326.6 1044.1,266.4 1096.1,266.4 		"/>
		<polygon fill="#6567C3" points="1044.1,266.4 1044.2,267.5 1083.9,267.5 1077.6,326.6 1089.8,326.6 1096.1,266.4 		"/>
		<path fill="#1F3969" d="M1089.8,328.6h-39.3c-1,0-1.9-0.8-2-1.8l-6.4-60.2c-0.1-1.1,0.7-2.1,1.8-2.2c0.1,0,0.1,0,0.2,0h52
			c1.1,0,2,0.9,2,2c0,0.1,0,0.1,0,0.2l-6.4,60.2C1091.6,327.8,1090.8,328.6,1089.8,328.6z M1052.3,324.6h35.7l6-56.2h-47.6
			L1052.3,324.6z"/>
	</g>
</g>
<path fill="#2FA9ED" d="M928.2,84h78.2c4.8,0,8.6,3.9,8.6,8.6v37.8c0,4.8-3.9,8.6-8.6,8.6h-78.2c-4.8,0-8.6-3.9-8.6-8.6V92.7
	C919.6,87.9,923.5,84,928.2,84z"/>
<line fill="#444E59" x1="819.3" y1="240" x2="897.5" y2="240"/>
<line fill="#444E59" x1="819.3" y1="240" x2="897.5" y2="240"/>
<path fill="#1F3969" d="M1006.5,140.6h-78.2c-5.6,0-10.1-4.5-10.1-10.1V92.7c0-5.6,4.5-10.1,10.1-10.1h78.2
	c5.6,0,10.1,4.5,10.1,10.1v37.8C1016.6,136.1,1012,140.6,1006.5,140.6z M928.3,85.5c-3.9,0-7.1,3.2-7.1,7.1v37.8
	c0,3.9,3.2,7.1,7.1,7.1h78.2c3.9,0,7.1-3.2,7.1-7.1V92.7c0-3.9-3.2-7.1-7.1-7.1H928.3z"/>
<g opacity="0.56">
	<path fill="#FFFFFF" d="M1002.5,99.8h-33.8c-0.8,0-1.5-0.7-1.5-1.5s0.7-1.5,1.5-1.5h33.8c0.8,0,1.5,0.7,1.5,1.5
		S1003.3,99.8,1002.5,99.8z"/>
</g>
<g opacity="0.56">
	<path fill="#FFFFFF" d="M991,108.7h-22.4c-0.8,0-1.5-0.7-1.5-1.5s0.7-1.5,1.5-1.5H991c0.8,0,1.5,0.7,1.5,1.5S991.9,108.7,991,108.7
		L991,108.7z"/>
</g>
<path opacity="0.56" fill="#FFFFFF" d="M970.7,117.6h13.6c1.8,0,3.3,1.5,3.3,3.3l0,0c0,1.8-1.5,3.3-3.3,3.3h-13.6
	c-1.8,0-3.3-1.5-3.3-3.3l0,0C967.4,119,968.9,117.6,970.7,117.6z"/>
<path fill="#FFFFFF" d="M943.2,110.9c-3.5,0-6.3-2.8-6.3-6.3c0-3.5,2.8-6.3,6.3-6.3c3.5,0,6.3,2.8,6.3,6.3c0,0,0,0,0,0
	C949.4,108.1,946.6,110.9,943.2,110.9z M943.2,101.4c-1.8,0-3.3,1.5-3.3,3.3c0,1.8,1.5,3.3,3.3,3.3c1.8,0,3.3-1.5,3.3-3.3
	c0,0,0,0,0,0C946.4,102.8,945,101.4,943.2,101.4z"/>
<path fill="#FFFFFF" d="M952.3,127.5h-17.9c-3.4,0-6.1-2.7-6.1-6.1v-20.9c0-3.4,2.7-6.1,6.1-6.1h17.9c3.4,0,6.1,2.7,6.1,6.1v20.9
	C958.5,124.8,955.7,127.5,952.3,127.5z M934.4,97.1c-1.7,0-3.1,1.4-3.1,3.1v20.9c0,1.7,1.4,3.1,3.1,3.1h17.9c1.7,0,3.1-1.4,3.1-3.1
	v-20.9c0-1.7-1.4-3.1-3.1-3.1H934.4z"/>
<path fill="#FFFFFF" d="M952.5,123.6c-0.8,0-1.5-0.7-1.5-1.5c0-4.2-3.4-7.6-7.6-7.6c-4.2,0-7.6,3.4-7.6,7.6c0,0.8-0.7,1.5-1.5,1.5
	s-1.5-0.7-1.5-1.5c0-5.8,4.7-10.6,10.6-10.6c5.8,0,10.6,4.7,10.6,10.6l0,0C954,122.9,953.3,123.6,952.5,123.6z"/>
<path fill="#1F3969" d="M657.6,106.4h-78.2c-5.6,0-10.1-4.5-10.1-10.1V58.5c0-5.6,4.5-10.1,10.1-10.1h78.2c5.6,0,10.1,4.5,10.1,10.1
	v37.8C667.8,101.9,663.2,106.4,657.6,106.4z M579.5,51.4c-3.9,0-7.1,3.2-7.1,7.1v37.8c0,3.9,3.2,7.1,7.1,7.1h78.2
	c3.9,0,7.1-3.2,7.1-7.1V58.5c0-3.9-3.2-7.1-7.1-7.1H579.5z"/>
<path fill="#1F3969" d="M602.5,174.7h-78.2c-5.6,0-10.1-4.5-10.1-10.1v-37.8c0-5.6,4.5-10.1,10.1-10.1h78.2
	c5.6,0,10.1,4.5,10.1,10.1v37.8C612.7,170.1,608.1,174.7,602.5,174.7z M524.4,119.6c-3.9,0-7.1,3.2-7.1,7.1v37.8
	c0,3.9,3.2,7.1,7.1,7.1h78.2c3.9,0,7.1-3.2,7.1-7.1v-37.8c0-3.9-3.2-7.1-7.1-7.1H524.4z"/>
<path fill="#444E59" d="M622.2,77.8h-26.8c-1.1,0-2-0.9-2-2s0.9-2,2-2h26.8c1.1,0,2,0.9,2,2S623.3,77.8,622.2,77.8z"/>
<path fill="#444E59" d="M588.2,77.8h-7.1c-1.1,0-2-0.9-2-2s0.9-2,2-2h7.1c1.1,0,2,0.9,2,2S589.3,77.8,588.2,77.8z"/>
<path fill="#444E59" d="M622.2,65.4h-13.4c-1.1,0-2-0.9-2-2c0-1.1,0.9-2,2-2h13.4c1.1,0,2,0.9,2,2C624.2,64.5,623.3,65.4,622.2,65.4
	z"/>
<path fill="#444E59" d="M602,65.4h-4c-1.1,0-2-0.9-2-2c0-1.1,0.9-2,2-2h4c1.1,0,2,0.9,2,2C604,64.5,603.1,65.4,602,65.4z"/>
<path fill="#444E59" d="M655.6,77.8h-26.8c-1.1,0-2-0.9-2-2s0.9-2,2-2h26.8c1.1,0,2,0.9,2,2S656.7,77.8,655.6,77.8z"/>
<path fill="#444E59" d="M633.3,65.4h-3.8c-1,0-2-0.7-2.1-1.7c-0.2-1.2,0.8-2.3,2-2.3h3.8c1,0,2,0.7,2.1,1.7
	C635.5,64.3,634.5,65.4,633.3,65.4z"/>
<path fill="#444E59" d="M655.6,65.4h-13.4c-1.1,0-2-0.9-2-2c0-1.1,0.9-2,2-2h13.4c1.1,0,2,0.9,2,2C657.6,64.5,656.7,65.4,655.6,65.4
	z"/>
<path fill="#444E59" d="M635.8,90.2h-54.8c-1.1,0-2-0.9-2-2s0.9-2,2-2h54.8c1.1,0,2,0.9,2,2S636.9,90.2,635.8,90.2z"/>
<path fill="#444E59" d="M567.3,147.6h-26.8c-1.1,0-2-0.9-2-2s0.9-2,2-2h26.8c1.1,0,2,0.9,2,2S568.4,147.6,567.3,147.6z"/>
<path fill="#444E59" d="M533.3,147.6h-7.1c-1.1,0-2-0.9-2-2s0.9-2,2-2h7.1c1.1,0,2,0.9,2,2S534.4,147.6,533.3,147.6z"/>
<path fill="#444E59" d="M567.3,135.2h-13.4c-1.1,0-2-0.9-2-2s0.9-2,2-2h13.4c1.1,0,2,0.9,2,2S568.4,135.2,567.3,135.2z"/>
<path fill="#444E59" d="M547.1,135.2h-4c-1.1,0-2-0.9-2-2s0.9-2,2-2h4c1.1,0,2,0.9,2,2S548.2,135.2,547.1,135.2z"/>
<path fill="#444E59" d="M600.7,147.6h-26.8c-1.1,0-2-0.9-2-2s0.9-2,2-2h26.8c1.1,0,2,0.9,2,2S601.8,147.6,600.7,147.6z"/>
<path fill="#444E59" d="M578.5,135.2h-3.8c-1,0-2-0.7-2.1-1.7c-0.2-1.2,0.8-2.3,2-2.3h3.8c1,0,2,0.7,2.1,1.7
	C580.6,134.1,579.7,135.2,578.5,135.2z"/>
<path fill="#444E59" d="M600.7,135.2h-13.4c-1.1,0-2-0.9-2-2s0.9-2,2-2h13.4c1.1,0,2,0.9,2,2S601.8,135.2,600.7,135.2z"/>
<path fill="#444E59" d="M581,160.1h-54.8c-1.1,0-2-0.9-2-2s0.9-2,2-2H581c1.1,0,2,0.9,2,2S582.1,160.1,581,160.1z"/>
<path fill="#444E59" d="M655.6,199h-13.4c-1.1,0-2-0.9-2-2s0.9-2,2-2h13.4c1.1,0,2,0.9,2,2S656.7,199,655.6,199z"/>
<path fill="#444E59" d="M594.8,208.6h-13.4c-1.1,0-2-0.9-2-2s0.9-2,2-2h13.4c1.1,0,2,0.9,2,2S595.9,208.6,594.8,208.6z"/>
<path fill="#444E59" d="M585.8,226.6h-4c-1.1,0-2-0.9-2-2s0.9-2,2-2h4c1.1,0,2,0.9,2,2S586.9,226.6,585.8,226.6z"/>
<path fill="#444E59" d="M588.8,217.4h-7.1c-1.1,0-2-0.9-2-2s0.9-2,2-2h7.1c1.1,0,2,0.9,2,2S589.9,217.4,588.8,217.4z"/>
<path fill="#444E59" d="M632.8,199H606c-1.1,0-2-0.9-2-2s0.9-2,2-2h26.8c1.1,0,2,0.9,2,2S633.9,199,632.8,199z"/>
<path fill="#444E59" d="M596,199h-3.8c-1,0-2-0.7-2.1-1.7c-0.2-1.2,0.8-2.3,2-2.3h3.8c1,0,2,0.7,2.1,1.7
	C598.1,197.9,597.2,199,596,199z"/>
<path fill="#FFFFFF" d="M1037,302.2h-46c-0.5,0-1.1,0.2-1.5,0.5l-11.1,9.7c-0.9,0.8-1,2.2-0.2,3.2c0.1,0.1,0.1,0.1,0.2,0.2l11.1,9.9
	c0.4,0.4,0.9,0.6,1.5,0.7h46c2.6,0,4.8-2.4,4.8-5v-14.5C1041.7,304.3,1039.6,302.2,1037,302.2z M989.8,317c-1.6,0-2.8-1.3-2.8-2.8
	s1.3-2.8,2.8-2.8c1.6,0,2.8,1.3,2.8,2.8l0,0C992.6,315.7,991.4,317,989.8,317z"/>
<rect x="1001.6" y="302.2" fill="#F09F54" width="13.4" height="24.2"/>
<rect x="1015" y="302.2" fill="#ED8B3B" width="13.4" height="24.2"/>
<path fill="#FF6C37" d="M1028.3,302.2h7.6c3.2,0,5.7,2.6,5.7,5.7l0,0v12.5c0,3.3-2.7,6-6,6h-7.4l0,0V302.2L1028.3,302.2z"/>
<path opacity="0.4" fill="#848484" enable-background="new    " d="M1038.2,303.4c-0.2,0-0.5,0-0.7,0h-46c-0.5,0-1.1,0.2-1.5,0.5
	l-11.1,9.7c-0.9,0.8-1,2.2-0.2,3.2c0.1,0.1,0.1,0.1,0.2,0.2l6.9,6.1l7.5,1.9c1.1,0.3,2.2,0.1,3.2-0.4l40.9-20.9
	C1037.8,303.6,1038,303.5,1038.2,303.4z M990.4,318.1c-1.6,0-2.8-1.3-2.8-2.8c0-1.6,1.3-2.8,2.8-2.8c1.6,0,2.8,1.3,2.8,2.8l0,0
	C993.2,316.9,991.9,318.1,990.4,318.1L990.4,318.1z"/>
<path fill="#1F3969" d="M1037,327.6h-46c-0.8,0-1.6-0.4-2.2-1l-11.1-9.9c-1.4-1.2-1.5-3.4-0.3-4.8c0.1-0.1,0.2-0.2,0.3-0.3l11.1-9.7
	c0.6-0.5,1.4-0.8,2.2-0.8h46c3.2,0,5.9,2.6,5.9,5.8v14.5C1042.9,324.7,1040.1,327.6,1037,327.6z M991,303.3c-0.3,0-0.5,0.1-0.7,0.3
	l-11.1,9.7c-0.5,0.4-0.5,1.1-0.1,1.6c0,0,0.1,0.1,0.1,0.1l11.1,9.9c0.2,0.2,0.5,0.4,0.7,0.4h46c1.9,0,3.6-1.8,3.6-3.9v-14.5
	c0-2-1.6-3.6-3.6-3.5L991,303.3z M989.8,318.1c-2.2,0-4-1.8-4-4c0-2.2,1.8-4,4-4c2.2,0,4,1.8,4,4c0,0,0,0,0,0
	C993.8,316.4,992,318.1,989.8,318.1z M989.8,312.5c-0.9,0-1.7,0.8-1.7,1.7c0,0.9,0.8,1.7,1.7,1.7c0.9,0,1.7-0.8,1.7-1.7c0,0,0,0,0,0
	C991.5,313.2,990.7,312.5,989.8,312.5L989.8,312.5z"/>
<path fill="#1F3969" d="M1015,327.6h-13.4c-0.6,0-1.1-0.5-1.1-1.1v-24.2c0-0.6,0.5-1.1,1.1-1.1h13.4c0.6,0,1.1,0.5,1.1,1.1v24.2
	C1016.1,327.1,1015.6,327.6,1015,327.6z M1002.7,325.3h11.1v-22h-11.1V325.3z"/>
<path fill="#1F3969" d="M1028.3,327.6H1015c-0.6,0-1.1-0.5-1.1-1.1v-24.2c0-0.6,0.5-1.1,1.1-1.1h13.4c0.6,0,1.1,0.5,1.1,1.1v24.2
	C1029.5,327.1,1029,327.6,1028.3,327.6z M1016.1,325.3h11.1v-22h-11.1V325.3z"/>
<path fill="#1F3969" d="M1035.8,327.6h-7.4c-0.6,0-1.1-0.5-1.1-1.1v-24.2c0-0.6,0.5-1.1,1.1-1.1h7.6c3.8,0,6.9,3.1,6.9,6.9v12.5
	C1042.9,324.4,1039.7,327.6,1035.8,327.6z M1029.5,325.3h6.3c2.7,0,4.8-2.2,4.8-4.8V308c0-2.5-2.1-4.6-4.6-4.6h-6.5V325.3z"/>
<path fill="#FFFFFF" d="M1025.1,279.1l-41,20.9c-0.5,0.2-0.9,0.7-1.1,1.2l-5.5,13.7c-0.5,1.2,0.1,2.5,1.3,2.9c0.1,0,0.2,0.1,0.3,0.1
	l14.3,3.6c0.5,0.1,1.1,0.1,1.6-0.2l41-20.9c2.3-1.2,3.2-4,2.1-6.3c0,0,0,0,0,0l-6.6-12.9C1030.3,278.9,1027.4,278,1025.1,279.1z"/>
<rect x="1010.2" y="284.8" transform="matrix(0.8908 -0.4545 0.4545 0.8908 -23.8083 494.5543)" fill="#8D91DB" width="13.4" height="24"/>
<path fill="#1F3969" d="M994,322.8c-0.3,0-0.6,0-0.8-0.1l-14.3-3.6c-1.8-0.5-2.9-2.3-2.5-4.1c0-0.1,0.1-0.3,0.1-0.4l5.5-13.7
	c0.3-0.8,0.9-1.4,1.6-1.8l41-20.9l0,0c2.9-1.5,6.4-0.3,7.9,2.6c0,0,0,0,0,0l6.6,13c1.5,2.9,0.3,6.4-2.6,7.9l-41,20.9
	C995.1,322.6,994.6,322.8,994,322.8z M1025.6,280.2l-41,20.9c-0.2,0.1-0.4,0.3-0.5,0.6l-5.5,13.7c-0.2,0.6,0.1,1.2,0.6,1.5
	c0,0,0.1,0,0.1,0l14.3,3.6c0.3,0.1,0.5,0,0.8-0.1l41-20.9c1.8-0.9,2.5-3,1.6-4.8l-6.6-13C1029.5,280,1027.4,279.3,1025.6,280.2
	C1025.6,280.2,1025.6,280.2,1025.6,280.2L1025.6,280.2z"/>
<circle fill="#1F3969" cx="988.5" cy="311.3" r="3.3"/>
<rect x="998.2" y="290.9" transform="matrix(0.8908 -0.4545 0.4545 0.8908 -27.877 489.7984)" fill="#BECCD5" stroke="#1F3969" stroke-width="4" stroke-linecap="round" stroke-linejoin="round" width="13.4" height="24"/>
<path fill="#1F3969" d="M1004.4,317.7c-0.4,0-0.8-0.2-1-0.6l-10.9-21.3c-0.3-0.6-0.1-1.2,0.5-1.5c0,0,0,0,0,0l11.9-6.1
	c0.6-0.3,1.2-0.1,1.5,0.5l10.9,21.4c0.3,0.6,0.1,1.2-0.5,1.5l-11.9,6.1C1004.8,317.7,1004.6,317.7,1004.4,317.7z M995,295.8
	l9.9,19.3l9.9-5l-9.9-19.3L995,295.8z"/>
<path fill="#1F3969" d="M1016.3,311.7c-0.1,0-0.2,0-0.4-0.1c-0.3-0.1-0.5-0.3-0.7-0.6l-10.9-21.4c-0.3-0.6-0.1-1.2,0.5-1.5l11.9-6.1
	c0.6-0.3,1.2-0.1,1.5,0.5c0,0,0,0,0,0l10.9,21.3c0.3,0.6,0.1,1.2-0.5,1.5c0,0,0,0,0,0l-11.9,6.1
	C1016.7,311.6,1016.5,311.7,1016.3,311.7z M1007,289.7l9.9,19.3l9.9-5l-9.9-19.3L1007,289.7z"/>
<path fill="#6567C3" d="M1017.4,283.1l6.8-3.5c2.8-1.4,6.2-0.3,7.7,2.5l5.7,11.2c1.4,2.8,0.3,6.2-2.5,7.7l-6.8,3.5l0,0L1017.4,283.1
	L1017.4,283.1z"/>
<path fill="#1F3969" d="M1028.3,305.6c-0.4,0-0.8-0.2-1-0.6l-10.9-21.3c-0.3-0.6-0.1-1.2,0.5-1.5l6.8-3.5c3.4-1.7,7.5-0.4,9.2,3
	l5.7,11.2c1.7,3.4,0.4,7.5-3,9.2l0,0l-6.8,3.5C1028.6,305.5,1028.4,305.6,1028.3,305.6z M1018.9,283.6l9.9,19.3l5.8-3
	c2.2-1.1,3.1-3.9,2-6.1l-5.7-11.2c-1.1-2.2-3.9-3.1-6.1-2L1018.9,283.6z M1035.1,300.9"/>
</svg>
